<svg width="1440" height="191" fill="none" xmlns="http://www.w3.org/2000/svg"><g clip-path="url(#clip0_1_50)"><path d="M-11.212 126.974L1450.05.889l24.24 280.956L13.03 407.93l-24.242-280.956z" fill="#F2F1EF"/><path d="M-461.553-104.168L5588.48-626.194l35.07 406.489-6050.029 522.026-35.074-406.489z" fill="#161513"/><g clip-path="url(#clip1_1_50)"><path d="M178.248 136.723l2.07 6.855 5.728-4.441-3.476 6.3 7.235.827-6.986 2.055 4.504 5.612-6.404-3.394-.866 7.108-2.07-6.855-5.729 4.441 3.477-6.3-7.236-.828 6.987-2.055-4.504-5.611 6.404 3.394.866-7.108z" fill="#E94D35"/></g><g clip-path="url(#clip2_1_50)"><path d="M636.079 99.226l2.07 6.855 5.729-4.441-3.477 6.3 7.236.828-6.987 2.055 4.504 5.611-6.404-3.394-.866 7.108-2.07-6.855-5.728 4.442 3.476-6.301-7.235-.827 6.987-2.055-4.505-5.612 6.405 3.395.865-7.109z" fill="#E94D35"/></g><path d="M28.659 167.697c-.371.032-.667-.045-.888-.231-.22-.185-.347-.464-.379-.834l-.982-11.388 5.2-.449c.885-.076 1.677.03 2.377.319.698.277 1.26.717 1.685 1.318.424.59.672 1.291.742 2.104l.34 3.946c.127 1.47-.147 2.62-.822 3.449-.677.817-1.732 1.288-3.167 1.411l-4.107.355zm3.968-1.535c1.016-.088 1.758-.429 2.224-1.023.478-.607.67-1.455.576-2.543l-.34-3.945c-.076-.873-.43-1.553-1.062-2.041-.621-.5-1.404-.709-2.348-.628l-3.838.331.879 10.186 3.91-.337zm8.115.492c-.37.032-.666-.045-.887-.23-.221-.198-.348-.482-.38-.853l-.981-11.37 8.428-.727.1 1.148-7.102.613.38 4.411 6.564-.566.099 1.148-6.564.566.406 4.699 7.101-.613.1 1.147-7.264.627zm13.784-1.189a.865.865 0 01-.59-.148c-.155-.119-.3-.317-.431-.595l-5.299-11.359 1.363-.117 4.855 10.62.018-.002 2.982-11.296 1.363-.118-3.58 12.956-.68.059zm8.335-.719c-.37.032-.666-.045-.887-.231-.221-.198-.348-.482-.38-.852l-.981-11.37 8.428-.727.1 1.147-7.102.613.38 4.412 6.564-.567.099 1.148-6.564.566.406 4.699 7.101-.613.1 1.148-7.264.627zm10.754-.928c-.371.032-.667-.045-.888-.231-.22-.185-.347-.464-.379-.834l-.982-11.388 1.327-.114.98 11.369 6.815-.588.103 1.184-6.976.602zm12.246-.912c-.825.071-1.57-.052-2.236-.367a3.89 3.89 0 01-1.624-1.45c-.406-.652-.647-1.426-.725-2.323l-.33-3.837c-.078-.897.027-1.701.315-2.412a3.88 3.88 0 011.352-1.707c.602-.425 1.321-.674 2.158-.746l1.901-.164c.837-.072 1.588.049 2.254.365.665.316 1.201.8 1.606 1.452.418.65.665 1.424.743 2.32l.33 3.838c.078.897-.033 1.701-.333 2.414a3.877 3.877 0 01-1.352 1.706c-.602.426-1.315.674-2.14.745l-1.919.166zm1.78-1.346c.874-.076 1.553-.441 2.038-1.098.486-.656.685-1.48.6-2.472l-.331-3.838c-.086-.992-.424-1.77-1.015-2.333-.59-.564-1.322-.808-2.195-.733l-1.829.158c-.873.076-1.552.441-2.037 1.098-.486.656-.685 1.48-.6 2.472l.331 3.838c.086.992.418 1.771.997 2.335.59.563 1.322.807 2.195.732l1.847-.159zm5.774-12.097l6.079-.525c.933-.08 1.702.118 2.31.596.619.476.966 1.145 1.04 2.006l.159 1.847c.08.92-.161 1.694-.721 2.32-.561.615-1.338.965-2.33 1.051l-4.537.391.41 4.752-1.327.115-1.083-12.553zm6.399 6.114c.61-.053 1.085-.268 1.426-.647.339-.391.484-.879.433-1.465l-.159-1.847c-.042-.49-.244-.87-.604-1.14-.35-.283-.8-.401-1.35-.353l-4.716.407.469 5.433 4.5-.388zm4.791-7.08l1.274-.11 5.203 7.952 3.638-8.715 1.273-.11 1.083 12.554-1.309.113-.87-10.079-3.028 7.199c-.111.251-.21.428-.297.532a.48.48 0 01-.312.153l-.395.034-4.737-7.161.87 10.078-1.309.113-1.084-12.553zm16.505 11.223c-.371.032-.666-.045-.887-.231-.222-.198-.349-.482-.381-.852l-.981-11.37 8.429-.727.099 1.147-7.102.613.381 4.412 6.563-.567.099 1.148-6.563.566.405 4.699 7.102-.613.099 1.148-7.263.627zm8.504-13.381l1.255-.108 7.861 9.855-.902-10.456 1.291-.111 1.083 12.553-1.255.109-7.855-9.783.896 10.383-1.291.111-1.083-12.553zm15.565-.187l-3.981.344-.099-1.148 9.29-.801.099 1.147-3.982.344.985 11.405-1.328.115-.984-11.406zm308.447-27.77l6.079-.525c.933-.08 1.703.118 2.31.596.619.476.966 1.145 1.04 2.006l.16 1.847c.079.921-.161 1.694-.721 2.321-.562.614-1.338.964-2.331 1.05l-4.537.391.41 4.753-1.327.114-1.083-12.553zm6.399 6.114c.61-.052 1.085-.268 1.426-.647.34-.39.484-.879.434-1.464l-.16-1.847c-.042-.491-.243-.871-.604-1.141-.35-.283-.799-.401-1.349-.353l-4.717.407.469 5.434 4.501-.389zm4.792-7.08l6.097-.526c.921-.079 1.679.12 2.274.599.606.465.946 1.123 1.019 1.972l.113 1.309c.055.633-.1 1.213-.464 1.738-.365.513-.88.901-1.544 1.163l.002.018c.375.16.724.437 1.047.831.335.393.603.845.804 1.358l1.276 3.268-1.363.118-1.276-3.268c-.218-.572-.552-1.019-1.001-1.341-.437-.324-.901-.465-1.391-.422l-3.641.314.458 5.308-1.327.115-1.083-12.554zm6.154 5.576c.658-.057 1.169-.276 1.533-.656.376-.394.539-.878.489-1.452l-.119-1.381c-.041-.478-.236-.847-.583-1.106-.348-.259-.784-.366-1.311-.32l-4.734.408.421 4.878 4.304-.371zm10.373 5.79c-.825.071-1.57-.052-2.236-.368a3.89 3.89 0 01-1.625-1.449c-.405-.652-.647-1.426-.724-2.323l-.331-3.837c-.078-.897.028-1.701.316-2.412a3.88 3.88 0 011.352-1.707c.602-.425 1.321-.674 2.158-.746l1.901-.164c.837-.073 1.588.049 2.253.365.666.316 1.202.8 1.607 1.452.418.65.665 1.424.742 2.32l.332 3.838c.077.897-.034 1.701-.334 2.414a3.881 3.881 0 01-1.352 1.706c-.602.426-1.315.674-2.14.745l-1.919.166zm1.781-1.347c.872-.075 1.551-.441 2.037-1.097.485-.656.685-1.48.6-2.472l-.332-3.838c-.085-.992-.423-1.77-1.014-2.334-.591-.563-1.322-.807-2.195-.732l-1.829.158c-.873.076-1.552.441-2.037 1.097-.486.657-.686 1.481-.6 2.473l.331 3.838c.086.992.418 1.77.996 2.335.591.563 1.323.807 2.196.732l1.847-.16zm8.021.356c-.37.032-.666-.045-.887-.23-.221-.186-.347-.464-.379-.835l-.983-11.388 5.201-.448c.885-.077 1.677.03 2.376.319.699.277 1.26.716 1.686 1.318.424.589.671 1.291.741 2.104l.341 3.945c.127 1.47-.148 2.62-.823 3.449-.676.818-1.731 1.288-3.166 1.412l-4.107.354zm3.969-1.535c1.016-.087 1.758-.428 2.224-1.023.478-.607.67-1.455.576-2.543l-.341-3.945c-.075-.873-.429-1.553-1.061-2.04-.621-.501-1.404-.71-2.349-.629l-3.838.332.879 10.186 3.91-.338zm10.764.409c-.765.066-1.455-.044-2.07-.328a3.558 3.558 0 01-1.488-1.335c-.378-.606-.602-1.315-.672-2.128l-.739-8.572 1.327-.115.742 8.608c.076.873.37 1.558.882 2.056.512.486 1.15.696 1.916.63l1.936-.167c.766-.066 1.359-.382 1.779-.949.42-.578.593-1.303.517-2.176l-.742-8.608 1.327-.115.739 8.573c.07.813-.029 1.55-.297 2.211a3.557 3.557 0 01-1.237 1.57c-.557.386-1.218.611-1.983.677l-1.937.168zm12.327-1.064c-.801.069-1.529-.061-2.184-.39a3.968 3.968 0 01-1.572-1.472c-.395-.665-.631-1.445-.708-2.342l-.322-3.73c-.077-.897.021-1.706.296-2.429.287-.723.726-1.297 1.315-1.721.601-.437 1.314-.691 2.139-.763l1.901-.164c.777-.067 1.473.042 2.087.326a3.435 3.435 0 011.503 1.298c.388.581.615 1.266.684 2.055l-1.292.111c-.073-.849-.377-1.509-.911-1.981-.524-.485-1.18-.693-1.969-.625l-1.901.164c-.849.073-1.504.443-1.964 1.109-.462.654-.649 1.489-.561 2.505l.322 3.731c.088 1.016.409 1.813.965 2.391.555.567 1.245.814 2.07.743l1.936-.167c.813-.07 1.44-.413 1.881-1.029.453-.617.639-1.392.558-2.325l1.291-.111c.074.849-.029 1.616-.307 2.303a3.677 3.677 0 01-1.287 1.628c-.566.411-1.244.65-2.033.718l-1.937.167zm10.004-12.498l-3.981.343-.099-1.148 9.29-.801.099 1.148-3.982.343.985 11.406-1.328.114-.984-11.405zm14.092 10.274c-.371.032-.667-.045-.887-.23-.221-.186-.348-.464-.379-.835l-.983-11.388 5.201-.448c.884-.077 1.676.03 2.376.319.698.277 1.26.716 1.685 1.318.425.589.672 1.291.742 2.104l.34 3.945c.127 1.471-.147 2.62-.822 3.449-.676.818-1.732 1.288-3.166 1.412l-4.107.354zm3.969-1.535c1.016-.087 1.757-.428 2.224-1.023.477-.607.669-1.455.575-2.542l-.34-3.946c-.075-.873-.429-1.553-1.061-2.04-.622-.501-1.405-.71-2.349-.629l-3.838.332.879 10.186 3.91-.338zm8.115.493c-.371.032-.667-.045-.887-.231-.222-.198-.349-.482-.381-.852l-.981-11.37 8.429-.727.099 1.147-7.102.613.381 4.412 6.563-.567.099 1.148-6.563.566.405 4.699 7.102-.613.099 1.148-7.263.627zm12.81-.961c-.718.062-1.364-.033-1.94-.284a3.373 3.373 0 01-1.403-1.18c-.347-.536-.552-1.169-.615-1.898l1.291-.112c.064.741.331 1.327.802 1.756.482.416 1.081.593 1.798.531l1.991-.172c.705-.06 1.26-.265 1.663-.613.403-.36.582-.797.538-1.311l-.099-1.148c-.035-.406-.227-.739-.574-.998-.336-.26-.782-.408-1.34-.445l-3.274-.259c-.922-.077-1.655-.339-2.2-.786-.544-.447-.848-1.041-.912-1.782l-.084-.968c-.075-.873.188-1.594.789-2.164.612-.583 1.456-.921 2.532-1.014l2.027-.174c1.016-.088 1.862.152 2.537.72.674.556 1.055 1.336 1.142 2.341l-1.292.111c-.056-.658-.293-1.167-.71-1.529-.416-.361-.941-.515-1.575-.46l-2.026.175c-.682.059-1.213.261-1.592.607-.381.334-.549.758-.505 1.272l.084.969c.036.418.216.758.539 1.019.336.26.777.415 1.323.464l3.258.279c.947.087 1.698.347 2.254.781.554.422.863.998.926 1.727l.099 1.148c.075.872-.199 1.607-.822 2.202-.624.584-1.48.923-2.568 1.017l-2.062.178zm7.117-13.406l1.327-.114 1.083 12.553-1.327.115-1.083-12.554zm9.217 11.996c-.825.072-1.564-.051-2.218-.368-.642-.33-1.167-.827-1.573-1.491-.395-.664-.631-1.445-.708-2.341l-.322-3.73c-.078-.897.028-1.701.316-2.413a3.974 3.974 0 011.349-1.742c.6-.437 1.313-.691 2.138-.763l1.901-.164c.789-.068 1.497.04 2.124.323a3.538 3.538 0 011.539 1.294c.387.581.615 1.266.683 2.055l-1.291.112c-.074-.849-.384-1.509-.93-1.98-.536-.483-1.21-.69-2.023-.62l-1.901.164c-.861.074-1.527.445-2 1.112-.473.655-.666 1.491-.578 2.507l.322 3.73c.087 1.016.409 1.814.965 2.392.567.565 1.268.812 2.105.74l1.937-.167c.849-.074 1.511-.426 1.987-1.057.475-.631.672-1.425.589-2.381l-.093-1.076-3.479.3-.101-1.166 4.771-.412.193 2.242c.074.861-.033 1.641-.322 2.34a3.702 3.702 0 01-1.319 1.668c-.591.412-1.299.654-2.124.725l-1.937.167zm7.416-13.431l1.255-.108 7.86 9.855-.902-10.456 1.292-.111 1.083 12.553-1.256.109-7.854-9.783.896 10.383-1.291.112-1.083-12.554zM977.03 82.362l-5.506.475-.991 3.59-1.363.118 3.741-12.97.61-.052c.394-.034.702.18.922.643l3.387 7.007.018-.002.003.036 2.133 4.405-1.363.118-1.591-3.368zm-5.189-.672l4.68-.404-2.87-6.04-.018.002-1.792 6.441zm8.897-8.79l6.098-.526c.92-.08 1.678.12 2.273.599.607.465.946 1.123 1.02 1.971l.113 1.31c.054.633-.1 1.213-.465 1.738-.365.513-.879.9-1.543 1.163l.001.018c.375.16.724.437 1.048.83.335.394.602.846.803 1.359l1.276 3.268-1.363.118-1.276-3.269c-.218-.571-.551-1.018-1.001-1.34-.437-.324-.901-.465-1.391-.422l-3.641.314.458 5.308-1.327.114-1.083-12.553zm6.154 5.576c.658-.057 1.169-.276 1.534-.657.375-.393.538-.877.489-1.451l-.12-1.38c-.041-.48-.235-.848-.583-1.107-.347-.259-.784-.366-1.31-.32l-4.735.408.421 4.878 4.304-.371zm8.483-5.683l-3.981.344-.099-1.148 9.285-.801.1 1.147-3.978.344.985 11.406-1.328.114-.984-11.406zm14.095 10.275c-.37.032-.67-.045-.89-.23-.22-.186-.35-.464-.38-.835l-.98-11.388 5.2-.448c.88-.077 1.68.03 2.37.318.7.277 1.27.717 1.69 1.318.42.59.67 1.291.74 2.104l.34 3.946c.13 1.47-.14 2.62-.82 3.45-.68.816-1.73 1.287-3.17 1.41l-4.1.355zm3.97-1.535c1.01-.088 1.75-.428 2.22-1.023.48-.607.67-1.455.58-2.543l-.35-3.945c-.07-.873-.42-1.553-1.06-2.04-.62-.5-1.4-.71-2.35-.629l-3.83.331.88 10.187 3.91-.338zm6.04-11.976l1.33-.114 1.08 12.553-1.33.114-1.08-12.553zm4.38-.377l6.09-.526c.92-.08 1.68.12 2.28.598.6.466.94 1.123 1.02 1.972l.11 1.31a2.57 2.57 0 01-.47 1.737c-.36.514-.88.901-1.54 1.163v.018c.38.16.73.438 1.05.832.33.392.6.845.8 1.357l1.28 3.269-1.36.117-1.28-3.268c-.22-.571-.55-1.018-1-1.34-.44-.325-.9-.465-1.39-.423l-3.64.314.46 5.308-1.33.115-1.08-12.553zm6.15 5.575c.66-.056 1.17-.275 1.53-.656.38-.394.54-.877.49-1.451l-.12-1.381c-.04-.478-.23-.847-.58-1.106-.35-.26-.79-.366-1.31-.32l-4.74.408.43 4.878 4.3-.372zm7.76 5.871c-.37.032-.67-.045-.89-.23-.22-.198-.35-.482-.38-.853l-.98-11.37 8.43-.727.1 1.148-7.1.613.38 4.411 6.56-.566.1 1.147-6.57.567.41 4.698 7.1-.612.1 1.147-7.26.627zm13.2-.995c-.8.07-1.52-.06-2.18-.39-.64-.33-1.17-.82-1.57-1.472-.4-.665-.63-1.445-.71-2.342l-.32-3.73c-.08-.897.02-1.706.3-2.428.28-.724.72-1.297 1.31-1.722.6-.437 1.31-.691 2.14-.762l1.9-.164c.78-.067 1.47.041 2.09.325.62.283 1.12.716 1.5 1.298.39.58.62 1.266.68 2.055l-1.29.111c-.07-.849-.37-1.509-.91-1.98-.52-.486-1.18-.694-1.97-.626l-1.9.164c-.85.073-1.5.443-1.96 1.11-.46.653-.65 1.488-.56 2.505l.32 3.73c.09 1.016.41 1.813.96 2.392.56.566 1.25.814 2.07.742l1.94-.167c.81-.07 1.44-.413 1.88-1.03.45-.616.64-1.391.56-2.324l1.29-.111c.07.849-.03 1.616-.31 2.303a3.734 3.734 0 01-1.28 1.628c-.57.41-1.25.65-2.04.718l-1.94.167zm10.01-12.498l-3.98.343-.1-1.147 9.29-.802.1 1.148-3.98.343.98 11.406-1.33.114-.98-11.405zm7.36-1.792l1.33-.114 1.08 12.553-1.32.114-1.09-12.553zm9.31 11.988c-.82.072-1.57-.05-2.24-.367a3.922 3.922 0 01-1.62-1.45c-.41-.651-.65-1.425-.72-2.322l-.34-3.838c-.07-.896.03-1.7.32-2.412a3.9 3.9 0 011.35-1.706c.6-.425 1.32-.674 2.16-.746l1.9-.165c.84-.072 1.59.05 2.25.366.67.316 1.21.8 1.61 1.451.42.65.67 1.424.74 2.321l.33 3.838c.08.897-.03 1.701-.33 2.413a3.9 3.9 0 01-1.35 1.707c-.6.425-1.32.674-2.14.745l-1.92.165zm1.78-1.346c.87-.075 1.55-.44 2.04-1.097.48-.656.68-1.48.6-2.473l-.33-3.837c-.09-.993-.43-1.77-1.02-2.334-.59-.563-1.32-.807-2.19-.732l-1.83.158c-.87.075-1.55.441-2.04 1.097-.48.656-.68 1.48-.6 2.473l.33 3.838c.09.992.42 1.77 1 2.335.59.563 1.32.807 2.19.732l1.85-.16zm5.77-12.097l1.26-.108 7.86 9.855-.9-10.455 1.29-.112 1.08 12.553-1.25.109-7.86-9.783.9 10.383-1.29.112-1.09-12.554z" fill="#fff"/><g clip-path="url(#clip3_1_50)"><path d="M376.299 121.641l2.07 6.855 5.729-4.441-3.477 6.3 7.236.828-6.987 2.055 4.504 5.612-6.404-3.395-.866 7.109-2.07-6.856-5.728 4.442 3.476-6.301-7.235-.827 6.987-2.055-4.505-5.612 6.405 3.395.865-7.109z" fill="#E94D35"/></g><path d="M265.126 147.438c-.717.062-1.364-.033-1.94-.284a3.37 3.37 0 01-1.402-1.18c-.347-.536-.553-1.169-.616-1.898l1.292-.112c.064.741.331 1.327.802 1.756.481.416 1.081.593 1.798.531l1.99-.172c.706-.06 1.26-.265 1.664-.613.402-.36.582-.797.537-1.311l-.099-1.148c-.035-.406-.226-.739-.574-.998-.335-.26-.782-.408-1.339-.445l-3.274-.259c-.922-.077-1.656-.339-2.2-.786-.545-.447-.849-1.041-.913-1.782l-.083-.968c-.076-.873.187-1.594.789-2.164.612-.583 1.456-.921 2.532-1.014l2.026-.175c1.017-.087 1.862.153 2.538.721.674.556 1.055 1.336 1.141 2.341l-1.291.111c-.057-.658-.293-1.167-.71-1.529-.417-.361-.942-.515-1.575-.46l-2.027.175c-.681.059-1.212.261-1.592.607-.38.334-.549.758-.504 1.272l.083.969c.037.418.216.758.54 1.019.336.26.777.415 1.323.464l3.258.279c.947.087 1.698.347 2.253.781.555.422.863.998.926 1.727l.099 1.148c.076.872-.198 1.607-.821 2.202-.625.584-1.481.923-2.569 1.017l-2.062.178zm9.841-12.484l-3.981.343-.099-1.148 9.289-.801.1 1.148-3.982.343.984 11.406-1.327.114-.984-11.405zm7.184-1.777l6.098-.526c.92-.079 1.678.12 2.274.599.606.466.946 1.123 1.019 1.972l.113 1.309c.055.634-.1 1.213-.464 1.738-.366.514-.88.901-1.544 1.163l.001.018c.376.161.725.438 1.048.831.335.393.603.846.803 1.358l1.276 3.269-1.363.117-1.276-3.268c-.217-.572-.551-1.019-1-1.341-.438-.324-.902-.464-1.392-.422l-3.64.314.458 5.308-1.327.115-1.084-12.554zm6.154 5.576c.658-.057 1.169-.275 1.534-.656.375-.394.538-.878.489-1.452l-.119-1.38c-.042-.479-.236-.847-.584-1.106-.347-.26-.784-.366-1.31-.321l-4.734.409.42 4.877 4.304-.371zm13.413 1.878l-5.506.475-.991 3.591-1.363.117 3.741-12.969.61-.053c.394-.034.702.18.922.643l3.387 7.007.018-.002.003.036 2.133 4.405-1.363.118-1.591-3.368zm-5.189-.672l4.68-.404-2.87-6.04-.018.002-1.792 6.442zm10.294-7.754l-3.981.343-.099-1.147 9.29-.802.099 1.148-3.981.343.984 11.406-1.327.115-.985-11.406zm9.433 10.677c-.37.031-.666-.045-.887-.231-.221-.198-.348-.482-.38-.853l-.981-11.369 8.428-.728.099 1.148-7.101.613.38 4.412 6.564-.567.099 1.148-6.564.566.406 4.699 7.101-.613.099 1.148-7.263.627zm13.243-.999c-.825.072-1.564-.051-2.218-.368-.642-.33-1.167-.827-1.574-1.491-.394-.664-.63-1.445-.708-2.341l-.321-3.73c-.078-.897.027-1.701.315-2.413a3.983 3.983 0 011.35-1.742c.6-.437 1.313-.691 2.138-.763l1.901-.164c.789-.068 1.497.04 2.123.323a3.526 3.526 0 011.539 1.294c.388.581.616 1.266.684 2.055l-1.292.112c-.073-.849-.383-1.509-.929-1.98-.536-.483-1.21-.69-2.023-.62l-1.901.164c-.861.074-1.527.445-2 1.112-.473.655-.666 1.491-.578 2.507l.321 3.73c.088 1.016.41 1.814.966 2.392.566.565 1.268.812 2.105.74l1.937-.167c.849-.074 1.511-.426 1.986-1.057.476-.631.672-1.425.59-2.381l-.093-1.076-3.479.3-.101-1.166 4.771-.412.193 2.242c.074.861-.033 1.641-.322 2.34a3.702 3.702 0 01-1.319 1.668c-.591.412-1.299.654-2.124.725l-1.937.167zm11.019-5.955l-5.294-7.33 1.435-.124 4.419 6.195 3.292-6.86 1.435-.124-3.96 8.129.416 4.824-1.327.114-.416-4.824z" fill="#fff"/><g clip-path="url(#clip4_1_50)"><path d="M893.83 76.986l2.07 6.855 5.728-4.44-3.476 6.3 7.235.827-6.986 2.055 4.504 5.612L896.5 90.8l-.865 7.109-2.07-6.856-5.729 4.442 3.477-6.3-7.236-.828 6.987-2.055-4.504-5.612 6.404 3.395.866-7.109z" fill="#E94D35"/></g><path d="M713.406 95.967l1.273-.11 5.203 7.952 3.639-8.715 1.273-.11 1.083 12.553-1.309.113-.87-10.078-3.028 7.199c-.111.25-.21.428-.298.531a.481.481 0 01-.312.154l-.394.034-4.737-7.161.869 10.078-1.309.113-1.083-12.553zm19.189 11.135c-.825.072-1.57-.051-2.236-.367a3.884 3.884 0 01-1.624-1.45c-.406-.651-.647-1.425-.725-2.322l-.331-3.838c-.077-.896.028-1.7.316-2.412.3-.712.751-1.28 1.352-1.706.602-.425 1.321-.674 2.158-.747l1.901-.163c.837-.073 1.588.05 2.254.365.665.316 1.201.8 1.606 1.451.418.65.665 1.425.743 2.321l.331 3.838c.077.897-.034 1.701-.334 2.414a3.881 3.881 0 01-1.352 1.706c-.602.425-1.315.674-2.14.745l-1.919.165zm1.781-1.346c.873-.075 1.552-.441 2.037-1.097.485-.656.685-1.48.6-2.473l-.331-3.837c-.086-.993-.424-1.77-1.015-2.334-.59-.563-1.322-.807-2.195-.732l-1.829.158c-.873.075-1.552.441-2.037 1.097-.486.656-.685 1.48-.6 2.473l.331 3.838c.086.992.418 1.77.997 2.335.59.563 1.322.807 2.195.732l1.847-.16zm8.378-11.165l-3.981.343-.099-1.147 9.289-.802.099 1.148-3.981.343.984 11.406-1.327.114-.984-11.405zm7.364-1.792l1.327-.114 1.083 12.553-1.327.114-1.083-12.553zm9.307 11.988c-.825.072-1.57-.051-2.236-.367a3.884 3.884 0 01-1.624-1.45c-.406-.651-.647-1.425-.725-2.322l-.331-3.838c-.077-.896.028-1.7.316-2.412.3-.712.751-1.28 1.352-1.706.602-.425 1.321-.674 2.158-.746l1.901-.165c.837-.072 1.588.05 2.254.366.665.316 1.201.8 1.606 1.451.418.65.665 1.424.743 2.321l.331 3.838c.077.897-.034 1.701-.334 2.413-.289.7-.74 1.269-1.352 1.707-.602.425-1.315.674-2.14.745l-1.919.165zm1.781-1.346c.873-.075 1.552-.441 2.037-1.097.485-.656.685-1.48.6-2.473l-.331-3.837c-.086-.993-.424-1.77-1.015-2.334-.59-.563-1.322-.807-2.195-.732l-1.829.158c-.873.075-1.552.441-2.037 1.097-.486.656-.685 1.48-.6 2.473l.331 3.838c.086.992.418 1.77.997 2.335.59.563 1.322.807 2.195.732l1.847-.16zm5.773-12.097l1.255-.108 7.86 9.855-.902-10.456 1.291-.11 1.083 12.552-1.255.109-7.854-9.783.896 10.383-1.291.112-1.083-12.554zm21.883 10.903c-.825.072-1.564-.051-2.218-.368-.642-.33-1.167-.827-1.573-1.491-.395-.664-.631-1.445-.708-2.341l-.322-3.73c-.078-.897.028-1.701.316-2.413a3.974 3.974 0 011.349-1.742c.6-.437 1.313-.692 2.138-.763l1.901-.164c.789-.068 1.497.04 2.124.323a3.535 3.535 0 011.539 1.294c.387.581.615 1.266.683 2.055l-1.291.112c-.074-.85-.384-1.509-.93-1.98-.536-.484-1.21-.69-2.023-.62l-1.901.164c-.861.074-1.527.445-2 1.112-.473.655-.666 1.49-.578 2.507l.322 3.73c.087 1.016.409 1.814.965 2.392.567.565 1.268.812 2.105.74l1.937-.167c.849-.074 1.511-.426 1.987-1.057.475-.631.672-1.425.589-2.382l-.093-1.076-3.479.3-.1-1.165 4.77-.412.193 2.242c.074.86-.033 1.641-.322 2.34a3.704 3.704 0 01-1.319 1.668c-.591.412-1.299.654-2.124.725l-1.937.167zm7.416-13.43l6.097-.527c.921-.08 1.679.12 2.274.599.606.465.946 1.123 1.019 1.971l.113 1.31c.055.633-.1 1.213-.464 1.738-.365.513-.88.9-1.544 1.163l.002.018c.375.16.724.437 1.047.83.335.394.603.846.804 1.359l1.276 3.268-1.363.118-1.276-3.269c-.218-.57-.552-1.018-1.001-1.34-.437-.324-.901-.465-1.391-.422l-3.641.314.458 5.308-1.327.114-1.083-12.553zm6.154 5.575c.658-.057 1.169-.276 1.533-.656.376-.394.539-.878.489-1.452l-.119-1.38c-.041-.479-.236-.848-.583-1.107-.348-.259-.784-.366-1.311-.32l-4.734.408.421 4.878 4.304-.371zm13.412 1.878l-5.505.475-.991 3.59-1.363.118 3.741-12.97.609-.052c.395-.034.702.18.923.643l3.387 7.007.018-.002.003.036 2.132 4.405-1.363.117-1.591-3.367zm-5.189-.673l4.681-.404-2.87-6.04-.018.002-1.793 6.442zm8.898-8.79l6.079-.524c.933-.08 1.703.118 2.31.596.619.477.966 1.145 1.04 2.006l.16 1.847c.079.92-.161 1.694-.722 2.32-.561.615-1.338.965-2.33 1.05l-4.537.392.41 4.753-1.327.114-1.083-12.553zm6.399 6.115c.61-.052 1.085-.268 1.426-.647.339-.39.484-.878.433-1.464l-.159-1.847c-.042-.49-.244-.87-.604-1.14-.35-.284-.8-.401-1.35-.354l-4.716.407.469 5.434 4.501-.389zm4.792-7.08l1.327-.114.486 5.63 6.922-.596-.486-5.632 1.327-.114 1.083 12.553-1.327.115-.495-5.739-6.922.597.495 5.74-1.327.114-1.083-12.554zm12.631-1.09l1.327-.114 1.083 12.553-1.327.115-1.083-12.554zm9.181 12c-.801.069-1.528-.061-2.183-.39a3.965 3.965 0 01-1.572-1.472c-.395-.665-.631-1.446-.708-2.342l-.322-3.73c-.078-.897.021-1.707.296-2.429.287-.723.725-1.297 1.315-1.721.601-.438 1.313-.692 2.138-.763l1.901-.164c.777-.067 1.473.041 2.088.326a3.436 3.436 0 011.503 1.297c.387.581.615 1.266.683 2.055l-1.291.112c-.073-.85-.377-1.51-.912-1.981-.523-.485-1.18-.694-1.969-.625l-1.901.164c-.848.073-1.503.442-1.964 1.109-.461.654-.648 1.489-.56 2.505l.322 3.73c.087 1.016.409 1.814.965 2.392.555.566 1.244.814 2.069.743l1.937-.167c.813-.07 1.44-.413 1.881-1.03.452-.617.638-1.392.558-2.324l1.291-.112c.073.85-.029 1.617-.307 2.303a3.678 3.678 0 01-1.287 1.629c-.567.41-1.245.65-2.034.717l-1.937.167z" fill="#fff"/><g clip-path="url(#clip5_1_50)"><path d="M1132.13 54.417l2.07 6.855 5.73-4.44-3.48 6.3 7.24.827-6.99 2.055 4.5 5.612-6.4-3.395-.87 7.109-2.07-6.856-5.73 4.442 3.48-6.3-7.23-.828 6.98-2.055-4.5-5.612 6.4 3.395.87-7.109z" fill="#E94D35"/></g><path d="M1376.18 50.422c-.35.03-.64-.053-.87-.25-.23-.196-.36-.468-.39-.815l-.99-11.387 5.31-.458c1.06-.092 1.94.091 2.63.55.7.445 1.09 1.086 1.16 1.923l.08.95c.04.443-.02.876-.19 1.3a2.49 2.49 0 01-.76 1.023v.018c.6.105 1.09.37 1.48.794.39.411.62.916.67 1.514l.07.86c.09.98-.15 1.797-.72 2.448-.58.64-1.39 1.005-2.46 1.097l-5.02.433zm3.91-7.274c.56-.049.99-.26 1.3-.637.31-.388.45-.875.4-1.461l-.09-.95c-.04-.479-.28-.843-.72-1.094-.43-.264-.98-.367-1.64-.31l-3.98.343.39 4.483 4.34-.374zm.83 5.673c.72-.062 1.26-.296 1.64-.701.38-.419.55-.94.5-1.56l-.08-.862c-.04-.502-.25-.887-.64-1.155-.38-.28-.87-.394-1.46-.344l-5.04.435.4 4.59 4.68-.403zm4.89-11.876l6.09-.526c.92-.08 1.68.12 2.28.599.6.465.94 1.123 1.02 1.971l.11 1.31a2.62 2.62 0 01-.46 1.738c-.37.513-.88.9-1.55 1.163v.018c.38.16.73.437 1.05.83.34.393.6.846.8 1.359l1.28 3.268-1.36.118-1.28-3.269c-.22-.571-.55-1.018-1-1.34-.44-.324-.9-.465-1.39-.422l-3.64.314.46 5.308-1.33.114-1.08-12.553zm6.15 5.576c.66-.057 1.17-.276 1.53-.657.38-.393.54-.877.49-1.45l-.12-1.382c-.04-.478-.23-.847-.58-1.106-.35-.259-.78-.366-1.31-.32l-4.73.408.42 4.878 4.3-.371zm13.41 1.878l-5.5.475-.99 3.59-1.37.118 3.74-12.97.61-.052c.4-.034.71.18.93.643l3.38 7.006.02-.001v.036l2.14 4.405-1.37.117-1.59-3.367zm-5.19-.673l4.68-.404-2.87-6.04-.01.002-1.8 6.442zm8.9-8.79l1.26-.108 7.86 9.855-.91-10.455 1.3-.111 1.08 12.553-1.26.108-7.85-9.783.9 10.384-1.3.111-1.08-12.553zm14.63 11.385c-.37.032-.66-.045-.89-.23-.22-.186-.34-.464-.37-.835l-.99-11.388 5.2-.448c.89-.077 1.68.03 2.38.319.7.277 1.26.716 1.69 1.318.42.59.67 1.29.74 2.104l.34 3.945c.12 1.47-.15 2.62-.83 3.45-.67.817-1.73 1.287-3.16 1.41l-4.11.355zm3.97-1.535c1.02-.087 1.76-.428 2.22-1.023.48-.607.67-1.454.58-2.542l-.34-3.946c-.08-.873-.43-1.553-1.06-2.04-.62-.5-1.41-.71-2.35-.629l-3.84.332.88 10.186 3.91-.338zm6.05-11.976l1.32-.114 1.09 12.553-1.33.115-1.08-12.554zm4.37-.377l1.26-.108 7.86 9.854-.91-10.455 1.3-.111 1.08 12.553-1.26.109-7.85-9.783.89 10.383-1.29.111-1.08-12.553zm17.23 11.305c-.83.071-1.57-.052-2.22-.369a3.996 3.996 0 01-1.58-1.49c-.39-.664-.63-1.445-.7-2.342l-.33-3.73c-.07-.897.03-1.7.32-2.412.3-.724.75-1.305 1.35-1.742.6-.438 1.31-.692 2.14-.763l1.9-.164c.79-.068 1.5.04 2.12.323.64.282 1.15.713 1.54 1.294.39.58.62 1.266.68 2.055l-1.29.111c-.07-.849-.38-1.508-.93-1.979-.53-.484-1.21-.69-2.02-.62l-1.9.164c-.86.074-1.53.445-2 1.112-.47.655-.67 1.49-.58 2.507l.32 3.73c.09 1.016.41 1.813.97 2.392.56.565 1.27.812 2.1.74l1.94-.168c.85-.073 1.51-.425 1.99-1.056.47-.632.67-1.425.59-2.382l-.1-1.076-3.48.3-.1-1.165 4.77-.412.2 2.242c.07.86-.04 1.64-.32 2.34a3.728 3.728 0 01-1.32 1.668c-.59.412-1.3.654-2.13.725l-1.93.167z" fill="#fff"/><g clip-path="url(#clip6_1_50)"><path d="M1303.62 39.62l2.07 6.855 5.73-4.441-3.47 6.3 7.23.828-6.99 2.055 4.51 5.611-6.41-3.394-.86 7.108-2.07-6.855-5.73 4.441 3.48-6.3-7.24-.828 6.99-2.054-4.51-5.612 6.41 3.394.86-7.108z" fill="#E94D35"/></g><path d="M1209.76 64.782c-.37.032-.67-.045-.89-.23-.22-.186-.34-.464-.38-.835l-.98-11.388 5.2-.449c.89-.076 1.68.03 2.38.32.7.276 1.26.716 1.68 1.317.43.59.67 1.291.75 2.104l.34 3.946c.12 1.47-.15 2.62-.83 3.45-.67.816-1.73 1.287-3.16 1.41l-4.11.355zm3.97-1.535c1.01-.087 1.76-.428 2.22-1.023.48-.607.67-1.455.58-2.543l-.34-3.945c-.08-.873-.43-1.553-1.06-2.04-.62-.5-1.41-.71-2.35-.629l-3.84.331.88 10.186 3.91-.337zm8.11.492c-.37.032-.66-.044-.88-.23-.23-.198-.35-.482-.38-.853l-.99-11.37 8.43-.727.1 1.148-7.1.613.38 4.411 6.57-.566.09 1.148-6.56.566.41 4.699 7.1-.613.1 1.148-7.27.626zm12.81-.96c-.71.061-1.36-.033-1.94-.285a3.409 3.409 0 01-1.4-1.18c-.35-.536-.55-1.168-.61-1.898l1.29-.111c.06.741.33 1.326.8 1.755.48.417 1.08.594 1.8.532l1.99-.172c.7-.06 1.26-.265 1.66-.613.4-.36.58-.797.54-1.311l-.1-1.148c-.04-.406-.23-.74-.57-.998-.34-.26-.79-.409-1.34-.445l-3.28-.26c-.92-.076-1.65-.338-2.2-.785-.54-.447-.85-1.04-.91-1.782l-.08-.969c-.08-.872.18-1.594.79-2.163.61-.583 1.45-.921 2.53-1.014l2.02-.175c1.02-.087 1.87.153 2.54.72.68.557 1.06 1.337 1.14 2.341l-1.29.112c-.06-.658-.29-1.167-.71-1.529-.42-.361-.94-.515-1.57-.46l-2.03.175c-.68.059-1.21.26-1.59.607-.38.334-.55.758-.51 1.272l.09.968c.03.419.21.758.54 1.02.33.26.77.415 1.32.464l3.26.279c.94.087 1.7.347 2.25.78.56.423.86.998.93 1.728l.1 1.147c.07.873-.2 1.607-.83 2.203-.62.584-1.48.923-2.56 1.017l-2.07.178zm7.12-13.406l1.33-.114 1.08 12.553-1.33.114-1.08-12.553zm9.22 11.996c-.83.071-1.57-.051-2.22-.368a3.911 3.911 0 01-1.57-1.49c-.4-.665-.63-1.446-.71-2.343l-.32-3.73c-.08-.896.02-1.7.31-2.412.3-.724.75-1.305 1.35-1.742.6-.438 1.32-.692 2.14-.763l1.9-.164c.79-.068 1.5.04 2.12.323a3.48 3.48 0 011.54 1.294c.39.581.62 1.266.69 2.055l-1.29.111c-.08-.848-.39-1.508-.93-1.979-.54-.484-1.21-.69-2.03-.62l-1.9.164c-.86.074-1.53.445-2 1.112-.47.655-.66 1.49-.58 2.507l.33 3.73c.08 1.016.41 1.813.96 2.392.57.565 1.27.812 2.11.74l1.93-.167c.85-.074 1.51-.426 1.99-1.057s.67-1.425.59-2.382l-.09-1.076-3.48.3-.1-1.165 4.77-.412.19 2.242c.07.86-.03 1.64-.32 2.34a3.728 3.728 0 01-1.32 1.668c-.59.412-1.3.654-2.12.725l-1.94.167zm7.41-13.431l1.26-.108 7.86 9.854-.9-10.455 1.29-.111 1.08 12.553-1.25.108-7.86-9.783.9 10.384-1.29.111-1.09-12.553z" fill="#fff"/></g><defs><clipPath id="clip0_1_50"><path fill="#fff" transform="rotate(-4.932 1468.697 193.667)" d="M0 0h1466.69v64H0z"/></clipPath><clipPath id="clip1_1_50"><path fill="#fff" transform="rotate(-4.932 1681.966 -1877.111)" d="M0 0h21.389v21H0z"/></clipPath><clipPath id="clip2_1_50"><path fill="#fff" transform="rotate(-4.932 1475.513 -7211.762)" d="M0 0h21.389v21H0z"/></clipPath><clipPath id="clip3_1_50"><path fill="#fff" transform="rotate(-4.932 1605.885 -4184.234)" d="M0 0h21.389v21H0z"/></clipPath><clipPath id="clip4_1_50"><path fill="#fff" transform="rotate(-4.932 1346.154 -10215.644)" d="M0 0h21.389v21H0z"/></clipPath><clipPath id="clip5_1_50"><path fill="#fff" transform="rotate(-4.932 1191.646 -12993.355)" d="M0 0h21.389v21H0z"/></clipPath><clipPath id="clip6_1_50"><path fill="#fff" transform="rotate(-4.932 1117.19 -14992.482)" d="M0 0h21.389v21H0z"/></clipPath></defs></svg>