<svg width="241" height="98" fill="none" xmlns="http://www.w3.org/2000/svg"><path d="M.5.5h240v97H.5V.5z" stroke="#131416"/><g clip-path="url(#clip0_1_380)" fill="#131416"><path d="M72.337 47.08c0-1.99-1.33-3.798-3.852-3.813-1.697 0-6.788-.017-8.485-.017v11.52h2.019v-3.844h5.34l3.121 3.845h2.4v-.147l-3.242-3.928c2.034-.445 2.707-2.039 2.707-3.616h-.008zm-10.31 1.888v-3.681h6.466c1.268 0 1.833.92 1.833 1.841 0 .921-.55 1.842-1.833 1.842l-6.466-.002zm24.296-5.713c-1.681 0-6.757.017-8.438.017v11.503h2.017v-3.39h6.42c5.244 0 5.228-8.134 0-8.134v.004zm0 6.142h-6.421v-4.076h6.42c2.568 0 2.583 4.077 0 4.077zm36.875-.574c.993-.478 1.391-1.332 1.391-2.22 0-2.308-1.574-3.335-3.685-3.335h-8.469V54.77h8.469c2.216 0 4.005-.82 4.005-3.385 0-.724-.459-2.154-1.711-2.563zm-8.777-3.584h6.481c1.286 0 1.682.887 1.682 1.414 0 .656-.412 1.233-1.682 1.233h-6.479l-.002-2.647zm6.481 7.512h-6.479v-2.959h6.481c.825 0 2.004.541 2.004 1.577 0 1.084-1.171 1.382-2.004 1.382m10.851-9.483h-2.018v11.505h10.915v-2.007h-8.897v-9.498zm15.743 0h-2.003v11.505h2.003V43.268zm15.127 8.325a4.309 4.309 0 01-.975.78c-.403.23-.831.405-1.274.52a5.954 5.954 0 01-1.537.19 5.675 5.675 0 01-1.999-.328 4.26 4.26 0 01-1.451-.891 3.719 3.719 0 01-.886-1.313 4.145 4.145 0 01-.298-1.552c-.002-.54.1-1.073.298-1.569a3.72 3.72 0 01.886-1.313c.425-.395.92-.695 1.455-.882a5.755 5.755 0 011.997-.32c.493-.002.986.056 1.467.173a5.54 5.54 0 011.237.461c.355.184.684.424.975.711.175.177.334.371.474.581l1.701-1.01a5.565 5.565 0 00-.742-.924 6.115 6.115 0 00-1.308-1.002 6.699 6.699 0 00-1.674-.667 8.218 8.218 0 00-2.025-.237 7.932 7.932 0 00-2.875.49 6.337 6.337 0 00-2.116 1.312 5.566 5.566 0 00-1.303 1.892 5.948 5.948 0 00-.462 2.302c0 .794.158 1.579.462 2.302a5.565 5.565 0 001.303 1.892 6.297 6.297 0 002.116 1.311c.921.342 1.89.51 2.864.497a8.14 8.14 0 002.087-.253 6.717 6.717 0 001.706-.707c.485-.282.93-.635 1.323-1.049.285-.304.537-.642.749-1.009l-1.709-1.006a3.575 3.575 0 01-.466.629m-58.722-8.349a1.62 1.62 0 00-.661.14c-.21.094-.4.23-.561.403-.16.172-.287.377-.374.602a1.975 1.975 0 00-.132.71h3.22v3.971a8.505 8.505 0 01-.323 1.552 3.74 3.74 0 01-.886 1.313 4.252 4.252 0 01-1.453.891 4.21 4.21 0 01-3.316 0 4.252 4.252 0 01-1.453-.891 3.726 3.726 0 01-.886-1.313 8.549 8.549 0 01-.324-1.552v-5.826h-1.993v5.826a5.88 5.88 0 00.453 2.303 5.516 5.516 0 001.302 1.891 6.3 6.3 0 002.119 1.305 7.371 7.371 0 004.876 0 6.31 6.31 0 002.117-1.31 5.54 5.54 0 001.303-1.892c.302-.724.457-1.51.452-2.303v-5.82h-3.48zm70.599 1.906l-4.713 9.61h-2.007l5.602-11.432v-.071h2.977L182 54.77h-2.007l-1.198-2.433h-3.591c-.233 0-.464-.05-.68-.145a1.779 1.779 0 01-.576-.414 1.92 1.92 0 01-.385-.62 2.022 2.022 0 01-.136-.731h4.428l-2.588-5.267h-.765z"/></g><defs><clipPath id="clip0_1_380"><path fill="#fff" transform="translate(60 43)" d="M0 0h122v12H0z"/></clipPath></defs></svg>