<svg width="241" height="98" fill="none" xmlns="http://www.w3.org/2000/svg"><path d="M.5.5h240v97H.5V.5z" stroke="#131416"/><g clip-path="url(#clip0_1_391)" fill="#131416"><path d="M102.67 44.334l-4.303-2.942a2.229 2.229 0 00-1.256-.385c-.45 0-.888.134-1.255.385l-1.4.956-1.524 1.039-1.379.947c-.28.192-.51.446-.668.74-.158.295-.24.621-.241.952v5.962a.478.478 0 01-.206.396l-1.494.988 1.43.975 1.01-.668c.28-.192.51-.446.667-.74.159-.294.241-.62.242-.951v-5.962a.486.486 0 01.216-.405l4.303-2.94a.53.53 0 01.6 0l1.122.766 1.43.975 1.751 1.198a.487.487 0 01.218.405v5.963a.495.495 0 01-.218.404l-4.304 2.93a.549.549 0 01-.637-.024l-.819-.494-1.442.999 1.343.812c.367.25.805.385 1.255.385.45 0 .89-.135 1.256-.385l4.303-2.94a2.11 2.11 0 00.667-.738c.158-.294.241-.619.242-.95v-5.96c0-.332-.083-.659-.241-.953a2.105 2.105 0 00-.668-.74z"/><path d="M95.645 54.618l1.381-.945a2.11 2.11 0 00.667-.738c.158-.293.241-.618.243-.948v-5.962a.48.48 0 01.207-.398l1.49-.987-1.43-.976-1.007.667c-.28.193-.51.447-.668.741a2.02 2.02 0 00-.24.952v5.963a.5.5 0 01-.217.404l-4.303 2.93a.53.53 0 01-.6 0l-1.123-.768-1.427-.971-1.751-1.198a.501.501 0 01-.159-.173.478.478 0 01-.059-.224v-5.962a.479.479 0 01.216-.405l4.303-2.94a.553.553 0 01.643.023l.795.482 1.46-.987-1.338-.81a2.227 2.227 0 00-1.255-.385c-.45 0-.889.135-1.255.385l-4.309 2.944c-.28.193-.51.447-.668.74a2.03 2.03 0 00-.241.953v5.962c0 .331.083.657.241.952.158.294.387.548.668.74l4.303 2.941a2.234 2.234 0 002.511 0l1.47-1.005 1.45-.988.002-.01zm17.866-11.738h-3.208v1.824a.776.776 0 01-.233.55.84.84 0 01-.567.24l-.855.02v2.434h1.655v4.368c0 2.76 1.138 3.654 5.898 3.357v-2.506c-2.421.238-2.608-.398-2.608-1.172v-4.05h2.608v-2.483h-2.69V42.88zm12.908-1.66c-1.158 0-1.793.248-1.793 1.56s.633 1.56 1.793 1.56c1.141 0 1.737-.28 1.737-1.56 0-1.317-.596-1.56-1.737-1.56zm1.617 4.242h-3.249V55.59h3.249V45.462zm8.359-.179c-1.635 0-2.669.535-3.166 1.151V41.55h-3.206v14.04c.036 0 .07 0 .106-.007h.144c.359 0 .711-.1 1.013-.285.303-.186.544-.45.694-.764v-.007a.346.346 0 01.116-.133.373.373 0 01.492.065c.614.715 1.471 1.142 2.688 1.258.253.034.508.051.763.052 1.841 0 3.011-.747 3.712-1.827.039-.058.077-.123.113-.178l.072-.13c.053-.097.102-.195.148-.296l.033-.074a6.3 6.3 0 00.146-.37c0-.014.009-.027.013-.041.045-.132.086-.267.121-.404 0-.017.009-.032.013-.048a6.41 6.41 0 00.076-.35l.028-.14c.009-.047.01-.074.017-.111.069-.428.105-.86.107-1.294 0-2.602-.973-5.223-4.243-5.223zm-1.096 7.923c-1.801 0-2.09-1.091-2.09-2.7 0-1.55.228-2.681 2.07-2.681 1.758 0 2.047 1.11 2.047 2.681 0 1.588-.289 2.7-2.027 2.7zm11.463-7.923c-3.849 0-4.76 1.489-4.76 3.654h3.145c0-.815.372-1.41 1.697-1.41 1.407 0 1.863.617 1.863 1.787l-2.774.277c-2.958.3-4.345 1.111-4.345 3.06 0 2.124 1.904 3.118 4.386 3.118 1.607 0 2.671-.448 3.399-1.295a.362.362 0 01.324-.129.354.354 0 01.284.197c.151.313.392.578.694.763.303.186.654.285 1.013.285h.246v-5.74c-.003-2.622-.67-4.567-5.172-4.567zm-.129 8.3c-1.18 0-1.672-.436-1.672-1.052 0-.477.393-.834 1.672-.953l2.07-.239c-.02 1.252-.62 2.245-2.07 2.245zM157 41.55h-3.227v14.04H157V41.55zm-33.317 3.717c-.104 0-.2.007-.301.01a3.815 3.815 0 00-2.315.618 3.357 3.357 0 00-.778.663.37.37 0 01-.609-.07 1.832 1.832 0 00-.698-.762 1.937 1.937 0 00-1.016-.282h-.246v.024h-.009V55.59h3.227v-5.185c0-1.35.373-2.64 2.794-2.402v-2.702h-.043c-.002-.022-.003-.035-.006-.035z"/></g><defs><clipPath id="clip0_1_391"><path fill="#fff" transform="translate(85 41)" d="M0 0h72v16H0z"/></clipPath></defs></svg>