<svg width="241" height="98" fill="none" xmlns="http://www.w3.org/2000/svg"><path d="M.5.5h240v97H.5V.5z" stroke="#131416"/><g clip-path="url(#clip0_1_334)" fill="#131416"><path d="M73.762 54.815L69 43.185h2.44l3.485 8.676 3.506-8.675h2.439l-4.786 11.629h-2.322zm9.208-6.837h7.153a3.746 3.746 0 00-1.314-1.99 3.515 3.515 0 00-2.24-.779 3.58 3.58 0 00-2.31.768 3.73 3.73 0 00-1.289 2zm-.717 5.28a5.79 5.79 0 01-1.327-1.937 5.7 5.7 0 01-.44-2.296 5.816 5.816 0 01.434-2.301 5.9 5.9 0 011.309-1.956 5.718 5.718 0 011.948-1.33 5.81 5.81 0 012.33-.438 6.171 6.171 0 014.216 1.593 5.668 5.668 0 011.395 1.9c.325.723.493 1.504.492 2.293.002.35-.02.698-.069 1.044H82.97a3.093 3.093 0 001.126 2.129c.669.556 1.524.85 2.4.825a3.731 3.731 0 002.841-1.162l2.772.024a6.126 6.126 0 01-2.274 2.431 6.106 6.106 0 01-3.27.92 5.957 5.957 0 01-2.34-.43 5.87 5.87 0 01-1.972-1.308zm11.932 1.557v-6.063c0-1.86.457-3.26 1.372-4.2a4.77 4.77 0 011.653-1.082 4.843 4.843 0 011.96-.325h.236v2.213h-.237c-1.77 0-2.654 1.131-2.652 3.395v6.062h-2.332zm12.157-9.605a3.715 3.715 0 00-1.49.261c-.473.189-.9.472-1.254.833a3.868 3.868 0 00-1.098 2.694 3.87 3.87 0 001.098 2.695 3.654 3.654 0 002.713 1.104 3.64 3.64 0 001.461-.266c.463-.188.88-.469 1.226-.825a3.923 3.923 0 001.077-2.694c0-1-.385-1.962-1.077-2.695a3.58 3.58 0 00-1.225-.827 3.636 3.636 0 00-1.462-.267l.031-.014zm-4.35-.465a6.214 6.214 0 017.733-.758 6.024 6.024 0 012.462 3.251 5.914 5.914 0 01-.199 4.047 6.05 6.05 0 01-2.769 3.004 6.221 6.221 0 01-4.081.597 6.143 6.143 0 01-3.541-2.08 5.94 5.94 0 01-1.392-3.815 5.704 5.704 0 01.446-2.304 5.803 5.803 0 011.341-1.942zm22.461 10.07h-2.652l-3.057-4.163-3.056 4.163h-2.676l4.405-6.045-4.052-5.585h2.631l2.724 3.722 2.772-3.721h2.632l-4.052 5.584 4.381 6.045zm2.693-.037v-3.89h-2.123v-1.347h2.123v-.414l.048-1.418c.128-1.413.579-2.522 1.352-3.328a4.77 4.77 0 013.087-1.394v1.421a3.527 3.527 0 00-2.024 1.047 3.604 3.604 0 00-.912 2.257l-.048 1.418v.414h3.736v1.347h-3.723v3.89l-1.516-.003zm9.159-11.589h-1.516v11.63h1.516v-11.63zm11.915 2.566a4.382 4.382 0 00-1.487-1 4.448 4.448 0 00-1.772-.327 4.532 4.532 0 00-1.78.33 4.465 4.465 0 00-1.5.997 4.622 4.622 0 00-1.343 3.25 4.62 4.62 0 001.343 3.25c.422.433.929.776 1.492 1.008a4.517 4.517 0 001.778.34 4.478 4.478 0 001.765-.329 4.39 4.39 0 001.483-.995 4.693 4.693 0 001.32-3.257 4.693 4.693 0 00-1.32-3.257l.021-.01zm-7.606-1.01a6.212 6.212 0 017.733-.758 6.024 6.024 0 012.462 3.251 5.908 5.908 0 01-.199 4.047 6.05 6.05 0 01-2.769 3.004 6.221 6.221 0 01-4.081.597 6.143 6.143 0 01-3.541-2.08 5.94 5.94 0 01-1.392-3.815 5.688 5.688 0 01.447-2.304 5.786 5.786 0 011.34-1.942zm22.314 1.01a4.376 4.376 0 00-1.488-1 4.445 4.445 0 00-1.772-.327 4.535 4.535 0 00-1.78.33 4.46 4.46 0 00-1.499.997 4.617 4.617 0 00-1.343 3.25c0 1.214.481 2.38 1.343 3.25a4.43 4.43 0 001.491 1.008 4.508 4.508 0 001.778.34c.605.01 1.206-.1 1.764-.329a4.383 4.383 0 001.482-.995 4.692 4.692 0 001.32-3.257 4.692 4.692 0 00-1.32-3.257l.024-.01zm-7.603-1.01a6.214 6.214 0 017.733-.758 6.024 6.024 0 012.462 3.251 5.908 5.908 0 01-.199 4.047 6.05 6.05 0 01-2.769 3.004 6.221 6.221 0 01-4.081.597 6.143 6.143 0 01-3.541-2.08 5.94 5.94 0 01-1.392-3.815 5.705 5.705 0 01.446-2.304 5.802 5.802 0 011.341-1.942zm12.224 10.07v-6.029c0-1.875.438-3.286 1.314-4.233.45-.475.999-.847 1.611-1.092a4.624 4.624 0 011.929-.326c.115-.002.23.005.343.02v1.421a1.881 1.881 0 00-.343-.023 3.05 3.05 0 00-1.348.254 2.997 2.997 0 00-1.091.817c-.599.711-.899 1.765-.899 3.162v6.029h-1.516zm3.901-1.294h.257a.413.413 0 00.25-.053.162.162 0 00.05-.063.153.153 0 00.015-.079.174.174 0 00-.03-.101.204.204 0 00-.09-.067.738.738 0 00-.212-.02h-.24v.383zm-.213.724v-1.283h.453c.115-.006.231.005.343.034a.341.341 0 01.226.313.322.322 0 01-.026.134.316.316 0 01-.077.112.413.413 0 01-.274.115c.042.016.08.04.113.07.073.078.137.162.192.253l.161.252h-.257l-.117-.202a.982.982 0 00-.223-.3.26.26 0 00-.168-.043h-.133v.545h-.213zm.535-1.656a1.041 1.041 0 00-.497.13.917.917 0 00-.381.368.974.974 0 00-.004.993.941.941 0 00.378.368 1.01 1.01 0 001.008 0 .941.941 0 00.378-.367.994.994 0 00-.004-.994.934.934 0 00-.381-.367 1.04 1.04 0 00-.476-.131h-.021zm0-.196c.209 0 .414.053.597.152.192.101.35.254.456.44.105.184.16.39.161.6.001.209-.055.413-.161.593a1.107 1.107 0 01-.449.445 1.256 1.256 0 01-1.208 0 1.14 1.14 0 01-.439-.448 1.182 1.182 0 01-.163-.596 1.182 1.182 0 01.619-1.038c.187-.099.396-.15.608-.148h-.021z"/></g><defs><clipPath id="clip0_1_334"><path fill="#fff" transform="translate(69 43)" d="M0 0h104v12H0z"/></clipPath></defs></svg>