<svg width="241" height="98" fill="none" xmlns="http://www.w3.org/2000/svg"><path d="M.5.5h240v97H.5V.5z" stroke="#131416"/><g clip-path="url(#clip0_1_404)" fill="#131416"><path fill-rule="evenodd" clip-rule="evenodd" d="M92.003 41.013l-19.874 7.92a.196.196 0 00-.095.083.205.205 0 00-.034.115.202.202 0 00.129.19l5.9 2.132a.19.19 0 00.1.011.214.214 0 00.092-.038l11.194-8.171a.023.023 0 01.018 0 .035.035 0 01.016.01.021.021 0 01.002.008c0 .002 0 .005-.002.008a.024.024 0 010 .018l-9.909 8.635a.213.213 0 00-.053.072.206.206 0 00-.017.088v4.598a.188.188 0 00.036.116.198.198 0 00.322.01l2.86-3.531a.206.206 0 01.102-.067.201.201 0 01.125 0l3.645 1.324a.2.2 0 00.15 0 .214.214 0 00.106-.108l5.452-13.158a.197.197 0 00.01-.115.192.192 0 00-.054-.103.197.197 0 00-.217-.047"/><path d="M98.285 42.609h-1.797l.026 10.963h1.797l-.026-10.963zm5.655 3.075c-.908 0-1.739.327-2.26.981v-.818h-1.694l.02 7.724h1.694l-.013-5.114a2.022 2.022 0 011.889-1.224c1.078 0 1.695.768 1.699 1.988l.009 4.35h1.694l-.011-4.62c0-1.996-1.18-3.26-3.027-3.256m10.034.119l-2.345 5.413-2.353-5.4h-1.879l3.499 7.715h1.494l3.474-7.733-1.89.005zm6.094-.168c-.987.017-1.932.4-2.653 1.075a3.99 3.99 0 001.997 6.834 3.973 3.973 0 002.813-.529 3.987 3.987 0 001.487-5.14 3.98 3.98 0 00-3.644-2.24zm.015 6.457c-1.368 0-2.327-1.06-2.329-2.435-.001-1.374.944-2.443 2.318-2.454 1.373-.012 2.312 1.062 2.316 2.436.003 1.375-.949 2.442-2.3 2.445l-.005.008zm6.926-6.326h-1.694l.022 7.723h1.692l-.02-7.723zm0-2.978h-1.694v1.567h1.694V42.8zm5.399 4.391a2.297 2.297 0 012.112 1.354l1.47-.805a3.99 3.99 0 00-3.593-2.128c-2.303.004-4.05 1.743-4.05 4.032 0 2.29 1.772 4.01 4.083 4.008a3.97 3.97 0 003.581-2.142l-1.479-.805a2.306 2.306 0 01-2.106 1.364c-1.368 0-2.342-1.06-2.345-2.434-.003-1.375.965-2.444 2.336-2.455m8.489-1.587c-2.34 0-4.021 1.757-4.007 4.028 0 2.342 1.688 4.013 4.024 4.008 1.608 0 2.817-.704 3.505-1.8l-1.287-.923c-.399.679-1.126 1.176-2.199 1.18-1.277 0-2.296-.83-2.376-2.096l6.043-.015c.015-.246.015-.386.015-.556 0-2.484-1.704-3.825-3.719-3.821l.001-.005zm-2.27 3.158c.229-1.145 1.225-1.72 2.213-1.72s1.878.597 2.066 1.709l-4.279.01zm27.354-3.22h-.06a3.965 3.965 0 00-2.839 1.165 3.989 3.989 0 00-1.164 2.843v.022a3.977 3.977 0 004.021 4.004h.029a3.949 3.949 0 002.847-1.156 3.992 3.992 0 001.169-2.844v-.026a3.984 3.984 0 00-1.166-2.837 3.964 3.964 0 00-2.835-1.164l-.002-.006zm-.019 6.464c-1.371 0-2.326-1.06-2.329-2.433-.004-1.373.949-2.444 2.316-2.454 1.367-.01 2.312 1.062 2.315 2.436.004 1.375-.948 2.442-2.302 2.445v.006zm-6.976-6.291v.71c-.541-.554-1.342-.86-2.265-.859-2.231 0-3.845 1.722-3.861 3.888a3.802 3.802 0 003.872 3.883c.926 0 1.725-.327 2.262-.902v.915c0 1.203-.653 1.846-1.538 2.042-2.205.396-3.575-.27-3.575-.27l-.541 1.388c.787.49 3.229.632 4.362.381 1.634-.288 2.992-1.358 2.987-3.526l-.014-7.651-1.689.001zm.011 4.974a2.333 2.333 0 01-2.061 1.085c-1.337 0-2.311-.998-2.327-2.325a2.244 2.244 0 01.163-.901 2.267 2.267 0 012.16-1.437 2.358 2.358 0 012.064 1.06l.001 2.519zm-11.234 1.318l2.31-3.142c.465-.61 1.208-1.636 1.347-1.86.644-1.066.722-2.185.163-3.303-.455-.91-1.26-1.353-2.252-1.472-1.39-.177-2.835.468-3.488 1.786-.152.288-.252.6-.294.922l1.481.327c.023-.064.044-.116.059-.164a1.856 1.856 0 011.039-1.228c.54-.247 1.316-.151 1.734.21.701.611.691 1.637.183 2.291-.085.112-4.469 5.708-4.469 5.708a.266.266 0 00-.062.175v1.239l6.505-.017v-1.472h-4.256z"/></g><defs><clipPath id="clip0_1_404"><path fill="#fff" transform="translate(72 41)" d="M0 0h98v16H0z"/></clipPath></defs></svg>