<svg width="72" height="16" fill="none" xmlns="http://www.w3.org/2000/svg"><path d="M17.67 3.334L13.367.392A2.229 2.229 0 0012.11.007c-.45 0-.888.134-1.255.385l-1.4.956-1.524 1.039-1.379.947c-.28.192-.51.446-.668.74-.158.295-.24.621-.241.952v5.962a.478.478 0 01-.206.396l-1.494.988 1.43.975 1.01-.668c.28-.192.51-.446.667-.74.159-.294.241-.62.242-.951V5.026a.485.485 0 01.216-.405l4.303-2.94a.53.53 0 01.6 0l1.122.766 1.43.975 1.751 1.198a.5.5 0 01.16.177.48.48 0 01.058.228v5.963a.501.501 0 01-.217.404l-4.305 2.93a.549.549 0 01-.637-.024l-.819-.494-1.442.999 1.343.812c.367.25.805.385 1.255.385.45 0 .89-.134 1.256-.385l4.303-2.94c.28-.192.509-.445.667-.739.158-.293.241-.618.242-.948V5.026a2.01 2.01 0 00-.24-.952 2.107 2.107 0 00-.67-.74z" fill="#131416"/><path d="M10.645 13.618l1.381-.945a2.11 2.11 0 00.667-.738c.158-.293.241-.618.243-.948V5.025a.479.479 0 01.207-.397l1.49-.988-1.43-.975-1.007.666c-.28.193-.51.447-.668.741-.158.294-.24.62-.24.952v5.963a.5.5 0 01-.217.404l-4.303 2.93a.53.53 0 01-.6 0l-1.123-.768-1.426-.971-1.753-1.198a.501.501 0 01-.158-.173.478.478 0 01-.059-.224V5.025a.5.5 0 01.216-.405l4.303-2.94a.553.553 0 01.643.023l.795.483 1.46-.988-1.338-.81A2.228 2.228 0 006.473.003c-.45 0-.889.135-1.256.385L.91 3.332c-.28.193-.51.447-.668.74a2.03 2.03 0 00-.241.953v5.962c0 .331.083.657.241.952.158.294.387.548.668.74l4.303 2.941a2.234 2.234 0 002.511 0l1.47-1.005 1.45-.988.002-.01zM28.51 1.88h-3.207v1.824a.774.774 0 01-.233.55.84.84 0 01-.567.24l-.855.02v2.434h1.655v4.368c0 2.76 1.138 3.654 5.898 3.357v-2.506c-2.421.238-2.608-.398-2.608-1.172v-4.05h2.608V4.462h-2.69V1.88zM41.42.22c-1.159 0-1.794.248-1.794 1.56s.633 1.56 1.793 1.56c1.141 0 1.737-.28 1.737-1.56 0-1.317-.596-1.56-1.737-1.56zm1.616 4.242h-3.249V14.59h3.25V4.462zm8.359-.179c-1.635 0-2.67.535-3.166 1.151V.55h-3.206v14.04c.035 0 .07 0 .106-.007h.144c.36 0 .71-.1 1.013-.285a1.83 1.83 0 00.694-.764v-.007a.349.349 0 01.116-.133.37.37 0 01.492.065c.614.715 1.471 1.142 2.688 1.258.253.034.508.051.763.052 1.84 0 3.011-.747 3.712-1.827.039-.058.077-.123.113-.178l.072-.13a4.59 4.59 0 00.148-.296l.032-.074c.054-.123.102-.247.147-.37 0-.014.01-.027.013-.041a5.24 5.24 0 00.12-.404c0-.017.01-.032.014-.048.028-.115.054-.23.076-.35l.028-.14c.009-.047.01-.074.017-.111.069-.428.105-.86.107-1.294 0-2.602-.973-5.223-4.243-5.223zM50.3 12.206c-1.8 0-2.09-1.091-2.09-2.7 0-1.55.227-2.681 2.07-2.681 1.758 0 2.047 1.11 2.047 2.681 0 1.588-.289 2.7-2.027 2.7zm11.462-7.923c-3.85 0-4.76 1.489-4.76 3.654h3.145c0-.815.372-1.41 1.697-1.41 1.407 0 1.863.617 1.863 1.787l-2.774.277c-2.958.3-4.345 1.111-4.345 3.06 0 2.124 1.904 3.118 4.386 3.118 1.607 0 2.67-.448 3.399-1.295a.373.373 0 01.493-.066c.05.035.09.08.115.134.151.313.392.578.694.763a1.94 1.94 0 001.013.285h.246V8.85c-.002-2.622-.67-4.567-5.172-4.567zm-.129 8.3c-1.18 0-1.672-.436-1.672-1.052 0-.477.393-.834 1.672-.953l2.07-.239c-.02 1.252-.62 2.245-2.07 2.245zM72 .55h-3.228v14.04H72V.55zM38.684 4.267c-.105 0-.201.007-.301.01a3.814 3.814 0 00-2.316.618 3.363 3.363 0 00-.778.663.375.375 0 01-.493.064.35.35 0 01-.116-.133 1.832 1.832 0 00-.698-.763 1.94 1.94 0 00-1.016-.282h-.246v.024h-.01V14.59h3.228V9.406c0-1.35.373-2.64 2.794-2.402V4.302h-.043c-.002-.022-.003-.035-.005-.035z" fill="#131416"/></svg>