<svg width="98" height="16" fill="none" xmlns="http://www.w3.org/2000/svg"><path fill-rule="evenodd" clip-rule="evenodd" d="M20.003.013L.13 7.933a.196.196 0 00-.095.083.205.205 0 00-.034.115.202.202 0 00.129.19l5.9 2.132a.19.19 0 00.1.011.214.214 0 00.092-.038l11.194-8.171a.023.023 0 01.018 0 .035.035 0 01.016.01.02.02 0 01.002.008.02.02 0 01-.002.008.024.024 0 010 .018l-9.91 8.635a.214.214 0 00-.053.072.206.206 0 00-.017.088v4.598a.189.189 0 00.036.116.198.198 0 00.322.01l2.86-3.531a.206.206 0 01.102-.067.201.201 0 01.125 0l3.645 1.324a.2.2 0 00.15 0 .214.214 0 00.106-.108L20.268.278a.197.197 0 00.01-.115.192.192 0 00-.054-.103.198.198 0 00-.217-.047" fill="#131416"/><path d="M26.285 1.609h-1.797l.026 10.963h1.797L26.285 1.61zm5.655 3.075c-.908 0-1.74.327-2.26.981v-.818h-1.694l.02 7.724H29.7l-.014-5.114a2.02 2.02 0 011.89-1.224c1.078 0 1.695.768 1.699 1.988l.01 4.35h1.693l-.011-4.62c0-1.996-1.18-3.26-3.027-3.256m10.034.119l-2.345 5.413-2.353-5.4h-1.879l3.499 7.715h1.494l3.474-7.733-1.89.005zm6.095-.168c-.988.016-1.933.4-2.654 1.075a3.99 3.99 0 001.997 6.834c.97.18 1.973-.009 2.813-.528a3.995 3.995 0 001.487-5.14 3.983 3.983 0 00-3.644-2.24zm.014 6.457c-1.368 0-2.327-1.06-2.329-2.435-.001-1.374.944-2.443 2.318-2.454 1.373-.012 2.312 1.062 2.316 2.436.003 1.375-.95 2.442-2.3 2.445l-.005.008zm6.927-6.326h-1.695l.022 7.723h1.692l-.02-7.723zm0-2.978h-1.695v1.567h1.694V1.8zm5.398 4.391a2.298 2.298 0 012.112 1.354l1.47-.805a3.99 3.99 0 00-3.593-2.128c-2.303.004-4.05 1.743-4.05 4.032 0 2.29 1.772 4.01 4.083 4.008a3.972 3.972 0 003.581-2.142l-1.48-.805a2.3 2.3 0 01-2.105 1.364c-1.368 0-2.342-1.06-2.345-2.434-.003-1.375.965-2.444 2.336-2.455m8.489-1.587c-2.34 0-4.02 1.757-4.008 4.028 0 2.342 1.69 4.013 4.025 4.008 1.608 0 2.817-.704 3.505-1.8l-1.287-.923c-.399.679-1.126 1.176-2.199 1.18-1.277 0-2.296-.83-2.376-2.096l6.043-.015c.015-.246.015-.386.015-.556 0-2.484-1.704-3.825-3.72-3.821l.002-.005zm-2.27 3.158c.229-1.146 1.225-1.72 2.213-1.72s1.878.597 2.066 1.708l-4.279.012zM93.99 4.53h-.06A3.966 3.966 0 0090.224 7c-.2.488-.3 1.01-.297 1.538v.022a3.986 3.986 0 002.48 3.713c.49.198 1.013.297 1.54.29h.03a3.95 3.95 0 002.847-1.155 3.981 3.981 0 001.17-2.844v-.026a3.98 3.98 0 00-4.002-4l-.002-.007zm-.02 6.464c-1.37 0-2.325-1.06-2.328-2.433-.004-1.373.949-2.445 2.316-2.454 1.367-.01 2.312 1.062 2.316 2.436.003 1.375-.95 2.442-2.303 2.445v.006zm-6.975-6.291v.71c-.54-.554-1.342-.86-2.265-.859-2.231 0-3.845 1.722-3.861 3.888a3.81 3.81 0 002.378 3.608c.474.192.983.285 1.494.275.926 0 1.725-.327 2.262-.901v.914c0 1.203-.653 1.846-1.538 2.042-2.205.396-3.575-.27-3.575-.27l-.54 1.388c.786.49 3.228.632 4.361.381 1.634-.288 2.992-1.358 2.987-3.526L88.684 4.7l-1.689.002zm.011 4.975a2.334 2.334 0 01-2.06 1.084c-1.338 0-2.311-.998-2.328-2.325a2.237 2.237 0 01.163-.901 2.268 2.268 0 012.16-1.437 2.358 2.358 0 012.064 1.06l.002 2.519zm-11.234 1.317l2.31-3.142c.465-.61 1.208-1.636 1.347-1.86.644-1.066.722-2.185.163-3.303-.455-.91-1.26-1.353-2.252-1.472-1.39-.177-2.835.468-3.488 1.787a2.722 2.722 0 00-.294.92l1.481.328c.023-.064.044-.116.059-.164a1.865 1.865 0 011.039-1.228c.54-.248 1.316-.151 1.734.21.7.611.69 1.637.183 2.291-.085.112-4.469 5.708-4.469 5.708a.264.264 0 00-.061.175v1.239l6.504-.017v-1.472h-4.256z" fill="#131416"/></svg>