<svg width="122" height="12" fill="none" xmlns="http://www.w3.org/2000/svg"><g clip-path="url(#clip0_1_382)" fill="#131416"><path d="M12.337 4.08c0-1.99-1.33-3.798-3.852-3.813C6.788.267 1.697.25 0 .25v11.52h2.019V7.927h5.34l3.121 3.845h2.4v-.147L9.638 7.696c2.034-.445 2.707-2.039 2.707-3.616h-.008zM2.027 5.968V2.287h6.466c1.268 0 1.833.92 1.833 1.841 0 .92-.55 1.842-1.833 1.842l-6.466-.002zM26.323.255c-1.681 0-6.757.016-8.438.016v11.504h2.017v-3.39h6.42c5.244 0 5.228-8.135 0-8.135v.005zm0 6.142h-6.421V2.32h6.42c2.568 0 2.583 4.077 0 4.077zm36.875-.574c.993-.478 1.391-1.332 1.391-2.22 0-2.308-1.574-3.335-3.685-3.335h-8.469V11.77h8.47c2.215 0 4.004-.82 4.004-3.385 0-.724-.459-2.154-1.71-2.563zM54.421 2.24h6.481c1.286 0 1.682.887 1.682 1.414 0 .656-.412 1.233-1.682 1.233h-6.48l-.001-2.647zm6.481 7.512h-6.48v-2.96h6.482c.825 0 2.004.541 2.004 1.577 0 1.084-1.17 1.382-2.004 1.382M71.755.268h-2.018v11.505h10.915V9.766h-8.897V.268zm15.744 0h-2.004v11.505H87.5V.268zm15.126 8.325a4.311 4.311 0 01-.975.78 5.24 5.24 0 01-1.274.52 5.96 5.96 0 01-1.537.19 5.678 5.678 0 01-2-.328 4.262 4.262 0 01-1.45-.891 3.726 3.726 0 01-.886-1.313A4.163 4.163 0 0194.204 6a4.21 4.21 0 01.299-1.569c.202-.502.504-.95.885-1.312.426-.396.92-.696 1.456-.883a5.759 5.759 0 011.997-.32c.493-.002.986.056 1.467.173.427.103.842.258 1.237.461.355.184.684.424.975.711.175.177.334.371.474.581l1.701-1.01a5.562 5.562 0 00-.742-.924 6.116 6.116 0 00-1.308-1.002 6.7 6.7 0 00-1.674-.667 8.222 8.222 0 00-2.025-.237 7.931 7.931 0 00-2.875.49 6.343 6.343 0 00-2.116 1.312 5.577 5.577 0 00-1.303 1.892 5.942 5.942 0 00-.462 2.302c0 .794.157 1.579.462 2.302a5.576 5.576 0 001.303 1.893 6.285 6.285 0 002.116 1.31c.921.342 1.89.51 2.864.497a8.14 8.14 0 002.087-.253 6.717 6.717 0 001.706-.707c.485-.282.93-.635 1.323-1.049.285-.304.537-.642.749-1.009l-1.709-1.006a3.573 3.573 0 01-.466.629M43.903.255a1.62 1.62 0 00-.66.14c-.21.094-.401.23-.562.403a1.87 1.87 0 00-.374.602 1.98 1.98 0 00-.132.71h3.22v3.971a8.534 8.534 0 01-.323 1.552 3.74 3.74 0 01-.886 1.313c-.426.396-.92.699-1.453.891a4.21 4.21 0 01-3.316 0 4.252 4.252 0 01-1.453-.891 3.726 3.726 0 01-.886-1.313 8.55 8.55 0 01-.324-1.552V.255h-1.993V6.08a5.88 5.88 0 00.453 2.303 5.517 5.517 0 001.303 1.891 6.3 6.3 0 002.118 1.305 7.372 7.372 0 004.876 0 6.302 6.302 0 002.117-1.31 5.54 5.54 0 001.303-1.892c.302-.724.457-1.51.452-2.303V.255h-3.48zm70.599 1.906l-4.713 9.61h-2.007L113.384.339V.268h2.977L122 11.77h-2.007l-1.198-2.433h-3.591c-.233 0-.464-.05-.68-.145a1.779 1.779 0 01-.576-.414 1.92 1.92 0 01-.385-.62 2.022 2.022 0 01-.136-.731h4.428l-2.588-5.267h-.765z"/></g><defs><clipPath id="clip0_1_382"><path fill="#fff" d="M0 0h122v12H0z"/></clipPath></defs></svg>