<svg width="131" height="32" fill="none" xmlns="http://www.w3.org/2000/svg"><g clip-path="url(#clip0_1_17)"><path d="M63.568 7.395c1.66 0 2.992.545 3.996 1.637 1.005 1.07 1.507 2.478 1.507 4.225V24h-4.454V13.257c0-.611-.142-1.092-.426-1.44a1.337 1.337 0 00-1.114-.558H61.67c-.612 0-1.146.23-1.605.688-.459.437-.742 1.026-.852 1.769V24h-4.454V13.29c0-.611-.142-1.103-.426-1.474a1.337 1.337 0 00-1.113-.557h-1.28c-.633 0-1.19.284-1.67.852-.48.568-.786 1.31-.917 2.227V24H44.9V7.657h4.126v1.9a4.727 4.727 0 011.507-1.573c.633-.393 1.267-.59 1.9-.59h1.834a3.8 3.8 0 012.129.623c.655.415 1.168.993 1.539 1.736.48-.743 1.048-1.321 1.703-1.736.677-.415 1.387-.622 2.129-.622h1.801zm15.088 16.867c-1.376 0-2.598-.262-3.668-.786a6.071 6.071 0 01-2.457-2.293c-.567-.982-.851-2.118-.851-3.406v-3.832c0-1.288.294-2.424.884-3.406a6.005 6.005 0 012.457-2.326c1.07-.546 2.292-.818 3.668-.818h2.947c1.376 0 2.588.272 3.636.818a5.958 5.958 0 012.49 2.326c.589.982.883 2.118.883 3.406v3.832c0 1.288-.294 2.424-.884 3.406-.59.983-1.42 1.747-2.49 2.293-1.047.524-2.27.786-3.667.786h-2.948zm2.882-3.832c.808 0 1.452-.273 1.933-.819.48-.568.72-1.3.72-2.194V14.24c0-.896-.24-1.616-.72-2.162-.48-.568-1.114-.851-1.9-.851h-2.817c-.786 0-1.419.283-1.9.851-.48.546-.72 1.267-.72 2.162v3.177c0 .895.24 1.626.72 2.194.481.546 1.103.819 1.868.819h2.816zm13.341-4.716l-5.993-8.057h4.978l3.603 4.847 3.603-4.847h4.978l-5.994 8.057 6.19 8.286h-4.978l-3.8-5.11L93.669 24H88.69l6.19-8.286zm17.543 8.548c-1.704 0-3.079-.426-4.127-1.277-1.048-.852-1.572-1.976-1.572-3.374V18.4c0-1.375.546-2.478 1.637-3.308 1.092-.851 2.533-1.277 4.324-1.277h1.997c.568 0 1.18.076 1.835.23a8.75 8.75 0 011.801.621v-1.703c0-.546-.186-.982-.557-1.31-.349-.349-.819-.524-1.408-.524h-2.817c-.611 0-1.103.142-1.474.426-.371.284-.557.666-.557 1.146h-4.323c0-1.593.579-2.87 1.736-3.832 1.179-.982 2.718-1.473 4.618-1.473h2.817c1.921 0 3.472.513 4.651 1.539 1.179 1.004 1.768 2.347 1.768 4.028V24h-4.127v-1.965a6.09 6.09 0 01-1.932 1.637c-.764.393-1.517.59-2.26.59h-2.03zm2.358-3.406c.808 0 1.528-.208 2.161-.623a3.55 3.55 0 001.376-1.67v-.557c-.349-.262-.841-.47-1.474-.622a8.08 8.08 0 00-1.965-.23h-2.063c-.524 0-.95.132-1.278.394-.327.262-.491.611-.491 1.048v.851c0 .415.175.754.524 1.016.371.262.852.393 1.441.393h1.769zm13.297 3.471c-.808 0-1.463-.24-1.966-.72-.48-.502-.72-1.157-.72-1.965s.24-1.452.72-1.933c.503-.502 1.158-.753 1.966-.753s1.452.251 1.932.753c.502.48.753 1.125.753 1.933s-.251 1.463-.753 1.965c-.48.48-1.124.72-1.932.72z" fill="#161513"/><path fill-rule="evenodd" clip-rule="evenodd" d="M17.143 0h-2.286v10.12L11.066.738l-2.12.856 3.89 9.627-7.342-7.342-1.616 1.616 7.037 7.037-9.12-3.984-.914 2.094 9.649 4.216H0v2.286h10.53L.88 21.359l.916 2.094 9.119-3.984-7.037 7.037 1.616 1.616 7.342-7.342-3.89 9.627 2.12.856 3.791-9.384V32h2.286V21.88l3.791 9.383 2.12-.856-3.89-9.627 7.342 7.342 1.616-1.616-7.037-7.037 9.12 3.984.914-2.094-9.649-4.216H32v-2.286H21.47l9.65-4.216-.916-2.094-9.119 3.984 7.037-7.037-1.616-1.616-7.342 7.342 3.89-9.627-2.12-.856-3.791 9.383V0z" fill="#E94D35"/></g><defs><clipPath id="clip0_1_17"><path fill="#fff" d="M0 0h131v32H0z"/></clipPath></defs></svg>