<svg width="40" height="40" fill="none" xmlns="http://www.w3.org/2000/svg"><g clip-path="url(#clip0_1_27)"><path fill-rule="evenodd" clip-rule="evenodd" d="M21.429 0H18.57v12.65L13.832.922l-2.649 1.07 4.862 12.034-9.177-9.177-2.02 2.02 8.796 8.796-11.4-4.98-1.143 2.618 12.061 5.27H0v2.857h13.162L1.101 26.7l1.144 2.617 11.398-4.98-8.795 8.796 2.02 2.02 9.177-9.177-4.862 12.034 2.65 1.07 4.738-11.73V40h2.858V27.35l4.739 11.729 2.649-1.07-4.862-12.034 9.177 9.177 2.02-2.02-8.796-8.796 11.4 4.98 1.143-2.618-12.061-5.27H40v-2.857H26.838l12.061-5.27-1.144-2.617-11.399 4.98 8.796-8.796-2.02-2.02-9.177 9.177L28.817 1.99 26.167.92l-4.738 11.73V0z" fill="#E94D35"/></g><defs><clipPath id="clip0_1_27"><path fill="#fff" d="M0 0h40v40H0z"/></clipPath></defs></svg>